<?xml version="1.0" encoding="UTF-8"?>
<svg xmlns="http://www.w3.org/2000/svg" version="1.1" width="176.785mm" height="176.785mm" viewBox="0 0 176.785 176.785">
  <!-- 24-LED legend collar, full variant. All labels upright.
       bore 108.79 dia (body 107.99 + 0.40), outside 168.79 dia.
       RED = cut through, BLACK = engrave. -->
  <g id="CUT" inkscape:label="CUT" inkscape:groupmode="layer" fill="none" stroke="#ff0000" stroke-width="0.10">
    <circle cx="88.393" cy="88.393" r="84.393"/>
    <circle cx="88.393" cy="88.393" r="54.393"/>
  </g>

  <g id="ENGRAVE" inkscape:label="ENGRAVE" inkscape:groupmode="layer" fill="#000000" stroke="none" font-family="DejaVu Sans, Helvetica, Arial, sans-serif" text-anchor="middle" dominant-baseline="central">
    <line x1="88.393" y1="7.600" x2="88.393" y2="5.200" stroke="#000000" stroke-width="0.55"/>
    <line x1="109.303" y1="10.353" x2="109.924" y2="8.035" stroke="#000000" stroke-width="0.25"/>
    <line x1="128.789" y1="18.424" x2="129.989" y2="16.346" stroke="#000000" stroke-width="0.55"/>
    <line x1="145.522" y1="31.264" x2="147.219" y2="29.567" stroke="#000000" stroke-width="0.25"/>
    <line x1="158.361" y1="47.996" x2="160.440" y2="46.796" stroke="#000000" stroke-width="0.55"/>
    <line x1="166.432" y1="67.482" x2="168.750" y2="66.861" stroke="#000000" stroke-width="0.25"/>
    <line x1="169.185" y1="88.393" x2="171.585" y2="88.393" stroke="#000000" stroke-width="0.55"/>
    <line x1="166.432" y1="109.303" x2="168.750" y2="109.924" stroke="#000000" stroke-width="0.25"/>
    <line x1="158.361" y1="128.789" x2="160.440" y2="129.989" stroke="#000000" stroke-width="0.55"/>
    <line x1="145.522" y1="145.522" x2="147.219" y2="147.219" stroke="#000000" stroke-width="0.25"/>
    <line x1="128.789" y1="158.361" x2="129.989" y2="160.440" stroke="#000000" stroke-width="0.55"/>
    <line x1="109.303" y1="166.432" x2="109.924" y2="168.750" stroke="#000000" stroke-width="0.25"/>
    <line x1="88.393" y1="169.185" x2="88.393" y2="171.585" stroke="#000000" stroke-width="0.55"/>
    <line x1="67.482" y1="166.432" x2="66.861" y2="168.750" stroke="#000000" stroke-width="0.25"/>
    <line x1="47.996" y1="158.361" x2="46.796" y2="160.440" stroke="#000000" stroke-width="0.55"/>
    <line x1="31.264" y1="145.522" x2="29.567" y2="147.219" stroke="#000000" stroke-width="0.25"/>
    <line x1="18.424" y1="128.789" x2="16.346" y2="129.989" stroke="#000000" stroke-width="0.55"/>
    <line x1="10.353" y1="109.303" x2="8.035" y2="109.924" stroke="#000000" stroke-width="0.25"/>
    <line x1="7.600" y1="88.393" x2="5.200" y2="88.393" stroke="#000000" stroke-width="0.55"/>
    <line x1="10.353" y1="67.482" x2="8.035" y2="66.861" stroke="#000000" stroke-width="0.25"/>
    <line x1="18.424" y1="47.996" x2="16.346" y2="46.796" stroke="#000000" stroke-width="0.55"/>
    <line x1="31.264" y1="31.264" x2="29.567" y2="29.567" stroke="#000000" stroke-width="0.25"/>
    <line x1="47.996" y1="18.424" x2="46.796" y2="16.346" stroke="#000000" stroke-width="0.55"/>
    <line x1="67.482" y1="10.353" x2="66.861" y2="8.035" stroke="#000000" stroke-width="0.25"/>
    <text x="88.393" y="8.725" font-size="3.15" font-weight="700">BIN NIGHT</text>
    <text x="107.300" y="17.829" font-size="3.15" opacity="0.7">1</text>
    <text x="128.226" y="19.398" font-size="3.15" opacity="0.7">2</text>
    <text x="140.049" y="36.737" font-size="3.15" opacity="0.7">3</text>
    <text x="157.387" y="48.559" font-size="3.15" opacity="0.7">4</text>
    <text x="158.956" y="69.485" font-size="3.15" opacity="0.7">5</text>
    <text x="165.711" y="88.393" font-size="3.15" font-weight="700">GARAGE</text>
    <text x="158.956" y="107.300" font-size="3.15" opacity="0.7">7</text>
    <text x="157.387" y="128.226" font-size="3.15" opacity="0.7">8</text>
    <text x="140.049" y="140.049" font-size="3.15" opacity="0.7">9</text>
    <text x="128.226" y="157.387" font-size="3.15" opacity="0.7">10</text>
    <text x="107.300" y="158.956" font-size="3.15" font-weight="700">SAM</text>
    <text x="88.393" y="168.060" font-size="3.15" font-weight="700">LAURA</text>
    <text x="69.485" y="158.956" font-size="3.15" font-weight="700">AMANDA</text>
    <text x="48.559" y="157.387" font-size="3.15" font-weight="700">ZAC</text>
    <text x="36.737" y="140.049" font-size="3.15" opacity="0.7">15</text>
    <text x="19.398" y="128.226" font-size="3.15" opacity="0.7">16</text>
    <text x="17.829" y="107.300" font-size="3.15" opacity="0.7">17</text>
    <text x="13.027" y="88.393" font-size="3.15" font-weight="700">DRIVEWAY</text>
    <text x="17.829" y="69.485" font-size="3.15" opacity="0.7">19</text>
    <text x="19.398" y="48.559" font-size="3.15" opacity="0.7">20</text>
    <text x="36.737" y="36.737" font-size="3.15" opacity="0.7">21</text>
    <text x="48.559" y="19.398" font-size="3.15" opacity="0.7">22</text>
    <text x="69.485" y="17.829" font-size="3.15" opacity="0.7">23</text>
    <text x="88.393" y="29.800" font-size="3.90" opacity="0.6">Every pixel named</text>
  </g>
</svg>
